HIERARCHY
ROOT Hips
{
  OFFSET 53.568 95.7046 11.7611
  CHANNELS 6 Xposition Yposition Zposition Zrotation Xrotation Yrotation
  JOINT spine
  {
    OFFSET 0 7.96568 0.458067
    CHANNELS 3 Zrotation Xrotation Yrotation
    JOINT spine1
    {
      OFFSET 0 10.2431 0
      CHANNELS 3 Zrotation Xrotation Yrotation
      JOINT spine2
      {
        OFFSET 0 9.81475 0
        CHANNELS 3 Zrotation Xrotation Yrotation
        JOINT Neck
        {
          OFFSET 0 25.1986 1.20138
          CHANNELS 3 Zrotation Xrotation Yrotation
          JOINT Head
          {
            OFFSET 0 7.61315 0
            CHANNELS 3 Zrotation Xrotation Yrotation
            End Site
            {
              OFFSET 0 18.4281 -6.07733
            }
          }
        }
        JOINT RightShoulder
        {
          OFFSET -4.1327 10.5992 -0.575451
          CHANNELS 3 Zrotation Xrotation Yrotation
          JOINT RightArm
          {
            OFFSET 0 13.9018 0
            CHANNELS 3 Zrotation Xrotation Yrotation
            JOINT RightArmRoll
            {
              OFFSET 0 7.01789 0
              CHANNELS 3 Zrotation Xrotation Yrotation
              JOINT RightForeArm
              {
                OFFSET 0 20.4406 0
                CHANNELS 3 Zrotation Xrotation Yrotation
                JOINT RightForeArmRoll
                {
                  OFFSET 0 7.87516 0
                  CHANNELS 3 Zrotation Xrotation Yrotation
                  JOINT RightHand
                  {
                    OFFSET 0 15.8037 0
                    CHANNELS 3 Zrotation Xrotation Yrotation
                    End Site
                    {
                      OFFSET 0 0 0
                    }
                  }
                }
              }
            }
          }
        }
        JOINT LeftShoulder
        {
          OFFSET 4.1327 10.5992 -0.575451
          CHANNELS 3 Zrotation Xrotation Yrotation
          JOINT LeftArm
          {
            OFFSET 0 13.9018 0
            CHANNELS 3 Zrotation Xrotation Yrotation
            JOINT LeftArmRoll
            {
              OFFSET 0 7.01789 0
              CHANNELS 3 Zrotation Xrotation Yrotation
              JOINT LeftForeArm
              {
                OFFSET 0 20.4406 0
                CHANNELS 3 Zrotation Xrotation Yrotation
                JOINT LeftForeArmRoll
                {
                  OFFSET 0 7.87515 0
                  CHANNELS 3 Zrotation Xrotation Yrotation
                  JOINT LeftHand
                  {
                    OFFSET 0 15.8037 0
                    CHANNELS 3 Zrotation Xrotation Yrotation
                    End Site
                    {
                      OFFSET 0 0 0
                    }
                  }
                }
              }
            }
          }
        }
      }
    }
  }
  JOINT RightUpLeg
  {
    OFFSET -7.06048 -1.2947 -1.0861
    CHANNELS 3 Zrotation Xrotation Yrotation
    JOINT RightUpLegRoll
    {
      OFFSET 0 18.5308 0
      CHANNELS 3 Zrotation Xrotation Yrotation
      JOINT RightLeg
      {
        OFFSET 0 -22.9476 0
        CHANNELS 3 Zrotation Xrotation Yrotation
        JOINT RightLegRoll
        {
          OFFSET 0 23.0226 0
          CHANNELS 3 Zrotation Xrotation Yrotation
          JOINT RightFoot
          {
            OFFSET 0 19.1625 0
            CHANNELS 3 Zrotation Xrotation Yrotation
            JOINT RightToeBase
            {
              OFFSET 0 16.0188 0
              CHANNELS 3 Zrotation Xrotation Yrotation
              End Site
              {
                OFFSET 0.00678979 7.75782 -0.894206
              }
            }
          }
        }
      }
    }
  }
  JOINT LeftUpLeg
  {
    OFFSET 7.06048 -1.2947 -1.0861
    CHANNELS 3 Zrotation Xrotation Yrotation
    JOINT LeftUpLegRoll
    {
      OFFSET 0 18.5309 0
      CHANNELS 3 Zrotation Xrotation Yrotation
      JOINT LeftLeg
      {
        OFFSET 0 22.9475 0
        CHANNELS 3 Zrotation Xrotation Yrotation
        JOINT LeftLegRoll
        {
          OFFSET 0 23.2355 0
          CHANNELS 3 Zrotation Xrotation Yrotation
          JOINT LeftFoot
          {
            OFFSET 0 18.9496 0
            CHANNELS 3 Zrotation Xrotation Yrotation
            JOINT LeftToeBase
            {
              OFFSET 0 16.0188 0
              CHANNELS 3 Zrotation Xrotation Yrotation
              End Site
              {
                OFFSET -0.0304289 7.75782 -0.894207
              }
            }
          }
        }
      }
    }
  }
}
MOTION
Frames: 13
Frame Time: 0.00208333
53.3405 95.7897 11.3757 -1.1993 -7.7126 0.945833 0.42857 -1.6961 0.196313 0.859877 0.611845 0.351785 0.856116 2.25679 0.337526 -1.41807 36.0104 -1.80404 4.63159 -6.61276 -1.69892 66.1643 3.31449 0.850212 121.437 47.6704 -44.6779 -2.38645e-006 5.24702e-006 1.97421e-007 -154.193 81.9259 144.824 -1.84859e-007 -1.36329e-006 -3.00078 8.0299 -4.95139 0.697635 -64.8329 0.282862 0.588511 -122.239 49.6499 53.8488 1.25154e-007 3.5003e-006 -1.7625e-006 150.733 84.3955 -140.869 6.49591e-006 7.05996e-006 3.00309 -8.0295 -4.95144 -0.697653 177.005 -9.10587 -2.17966 180 7.01486e-015 178.686 177.94 3.77045 179.584 1.1153e-006 2.67091e-006 0.0354685 -18.8511 67.9677 19.4879 8.13625 25.2326 -3.48772 -171.552 -4.96009 -1.33207 4.5067e-006 -1.99009e-005 -1.23508 -1.88544 -7.8386 0.186551 -8.91502e-007 -2.57141e-006 -0.0617885 18.5346 68.6846 -20.104 -8.13649 25.2327 3.48774 
53.3344 95.7886 11.3736 -1.19946 -7.70527 0.960913 0.426469 -1.70003 0.194587 0.855671 0.603974 0.34979 0.851929 2.24892 0.335601 -1.36812 35.9899 -1.80903 4.55201 -6.4971 -1.6977 66.1814 3.28825 0.833911 121.381 47.7004 -44.6296 -2.38645e-006 5.24702e-006 1.97421e-007 -154.106 81.9912 144.765 -1.84859e-007 -1.36329e-006 -3.00078 8.0299 -4.95139 0.697635 -64.7375 0.260611 0.58928 -122.316 49.7207 53.8701 1.25154e-007 3.5003e-006 -1.7625e-006 150.568 84.5056 -140.773 6.49591e-006 7.05996e-006 3.00309 -8.0295 -4.95144 -0.697653 177.01 -9.10134 -2.18234 180 7.01486e-015 178.686 177.939 3.7696 179.584 1.1153e-006 2.67091e-006 0.0354721 -18.8513 67.9679 19.4881 8.13625 25.2326 -3.48777 -171.547 -4.94509 -1.3329 4.5067e-006 -1.99009e-005 -1.23513 -1.88423 -7.84247 0.18657 -8.91502e-007 -2.57141e-006 -0.0617439 18.5279 68.6826 -20.1024 -8.13649 25.2327 3.48774 
53.3276 95.7869 11.3676 -1.20003 -7.69786 0.976151 0.42427 -1.70381 0.19276 0.851278 0.596393 0.347663 0.847556 2.24134 0.333547 -1.31214 35.9642 -1.81567 4.46369 -6.37796 -1.69681 66.2022 3.25822 0.815055 121.328 47.7333 -44.5852 -2.38645e-006 5.24702e-006 1.97421e-007 -154.019 82.0605 144.708 -1.84859e-007 -1.36329e-006 -3.00078 8.0299 -4.95139 0.697635 -64.6359 0.236831 0.590148 -122.398 49.7898 53.8936 1.25154e-007 3.5003e-006 -1.7625e-006 150.389 84.6172 -140.664 6.49591e-006 7.05996e-006 3.00309 -8.0295 -4.95144 -0.697653 177.016 -9.09663 -2.18516 180 7.01486e-015 178.686 177.938 3.76907 179.584 1.1153e-006 2.67091e-006 0.0354757 -18.8515 67.9681 19.4884 8.13625 25.2325 -3.48782 -171.542 -4.92965 -1.33407 4.5067e-006 -1.99009e-005 -1.23518 -1.88298 -7.84681 0.186578 -8.91502e-007 -2.57141e-006 -0.061703 18.5204 68.6805 -20.1008 -8.13649 25.2327 3.48774 
53.3259 95.7853 11.3677 -1.20095 -7.69052 0.991411 0.422014 -1.70743 0.190854 0.846777 0.589131 0.345411 0.843077 2.23408 0.331368 -1.25174 35.9343 -1.82336 4.36841 -6.25699 -1.69605 66.2258 3.22518 0.794212 121.277 47.7685 -44.5438 -2.38645e-006 5.24702e-006 1.97421e-007 -153.932 82.1333 144.651 -1.84859e-007 -1.36329e-006 -3.00078 8.0299 -4.95139 0.697635 -64.5296 0.211814 0.591149 -122.485 49.8573 53.9184 1.25154e-007 3.5003e-006 -1.7625e-006 150.198 84.7298 -140.544 6.49591e-006 7.05996e-006 3.00309 -8.0295 -4.95144 -0.697653 177.023 -9.09187 -2.18808 180 7.01486e-015 178.685 177.937 3.76882 179.584 1.1153e-006 2.67091e-006 0.0354794 -18.8517 67.9683 19.4886 8.13624 25.2325 -3.48788 -171.537 -4.91403 -1.33554 4.5067e-006 -1.99009e-005 -1.23523 -1.88171 -7.85154 0.186577 -8.91502e-007 -2.57141e-006 -0.0616631 18.5125 68.6785 -20.0992 -8.13649 25.2327 3.48774 
53.3231 95.7864 11.3618 -1.20213 -7.68341 1.00656 0.419739 -1.71088 0.18889 0.842246 0.582217 0.343037 0.838569 2.22717 0.329069 -1.18853 35.9014 -1.83148 4.26797 -6.13586 -1.6952 66.251 3.18992 0.771948 121.227 47.8055 -44.5045 -2.38645e-006 5.24702e-006 1.97421e-007 -153.844 82.209 144.595 -1.84859e-007 -1.36329e-006 -3.00078 8.0299 -4.95139 0.697635 -64.4203 0.185852 0.592316 -122.573 49.9237 53.9439 1.25154e-007 3.5003e-006 -1.7625e-006 149.995 84.843 -140.411 6.49591e-006 7.05996e-006 3.00309 -8.0295 -4.95144 -0.697653 177.029 -9.08716 -2.19105 180 7.01486e-015 178.685 177.936 3.76885 179.584 1.1153e-006 2.67091e-006 0.0354831 -18.8519 67.9686 19.4889 8.13624 25.2325 -3.48794 -171.531 -4.89848 -1.33726 4.5067e-006 -1.99009e-005 -1.23528 -1.88044 -7.85659 0.186569 -8.91502e-007 -2.57141e-006 -0.0616215 18.5042 68.6764 -20.0976 -8.13649 25.2327 3.48774 
53.3205 95.7859 11.3611 -1.20351 -7.67667 1.02147 0.417486 -1.71414 0.18689 0.837763 0.575682 0.340546 0.83411 2.22064 0.326652 -1.12412 35.8665 -1.83943 4.16415 -6.01624 -1.69409 66.2769 3.15322 0.748831 121.177 47.8437 -44.4666 -2.38645e-006 5.24702e-006 1.97421e-007 -153.754 82.2872 144.537 -1.84859e-007 -1.36329e-006 -3.00078 8.0299 -4.95139 0.697635 -64.3096 0.159236 0.593683 -122.66 49.989 53.969 1.25154e-007 3.5003e-006 -1.7625e-006 149.78 84.9562 -140.266 6.49591e-006 7.05996e-006 3.00309 -8.0295 -4.95144 -0.697653 177.036 -9.08262 -2.19405 180 7.01486e-015 178.685 177.935 3.76917 179.584 1.1153e-006 2.67091e-006 0.0354868 -18.8521 67.9688 19.4891 8.13624 25.2324 -3.48798 -171.524 -4.88324 -1.33919 4.5067e-006 -1.99009e-005 -1.23532 -1.87918 -7.86186 0.186556 -8.91502e-007 -2.57141e-006 -0.0615753 18.4957 68.6744 -20.096 -8.13649 25.2327 3.48774 
53.3138 95.7841 11.3646 -1.20502 -7.67046 1.036 0.415295 -1.71719 0.184877 0.833407 0.569555 0.337944 0.82978 2.21451 0.324122 -1.06012 35.8308 -1.8466 4.05873 -5.89979 -1.69249 66.3023 3.11586 0.725427 121.128 47.8827 -44.4292 -2.38645e-006 5.24702e-006 1.97421e-007 -153.661 82.3675 144.477 -1.84859e-007 -1.36329e-006 -3.00078 8.0299 -4.95139 0.697635 -64.1991 0.132258 0.595285 -122.743 50.0535 53.9929 1.25154e-007 3.5003e-006 -1.7625e-006 149.554 85.0689 -140.109 6.49591e-006 7.05996e-006 3.00309 -8.0295 -4.95144 -0.697653 177.043 -9.07836 -2.19703 180 7.01486e-015 178.685 177.934 3.76977 179.584 1.1153e-006 2.67091e-006 0.0354905 -18.8522 67.9689 19.4893 8.13624 25.2324 -3.48802 -171.518 -4.86856 -1.34129 4.5067e-006 -1.99009e-005 -1.23537 -1.87795 -7.86729 0.186541 -8.91502e-007 -2.57141e-006 -0.0615219 18.4872 68.6725 -20.0945 -8.13649 25.2327 3.48774 
53.3127 95.7846 11.3639 -1.20658 -7.66494 1.05002 0.413205 -1.72003 0.182872 0.829255 0.563867 0.335237 0.825657 2.20883 0.321483 -0.998139 35.7954 -1.85239 3.95351 -5.78819 -1.69023 66.3263 3.07863 0.702302 121.079 47.922 -44.3913 -2.38645e-006 5.24702e-006 1.97421e-007 -153.565 82.4492 144.415 -1.84859e-007 -1.36329e-006 -3.00079 8.0299 -4.95139 0.697635 -64.0905 0.105211 0.597156 -122.821 50.1175 54.0149 1.25154e-007 3.5003e-006 -1.7625e-006 149.319 85.1808 -139.942 6.49591e-006 7.05996e-006 3.00309 -8.0295 -4.95144 -0.697653 177.05 -9.07452 -2.19996 180 7.01486e-015 178.685 177.933 3.77062 179.584 1.1153e-006 2.67091e-006 0.0354943 -18.8524 67.9691 19.4895 8.13624 25.2324 -3.48804 -171.511 -4.8547 -1.34353 4.5067e-006 -1.99009e-005 -1.23542 -1.87677 -7.87279 0.186526 -8.91502e-007 -2.57141e-006 -0.0614585 18.4788 68.6707 -20.0931 -8.13649 25.2327 3.48774 
53.3087 95.7844 11.3699 -1.20812 -7.66026 1.06339 0.411257 -1.72263 0.180897 0.825388 0.558646 0.332427 0.821819 2.20361 0.318737 -0.939771 35.7614 -1.85618 3.85026 -5.68309 -1.68708 66.3478 3.0423 0.680023 121.029 47.9609 -44.3522 -2.38645e-006 5.24702e-006 1.97421e-007 -153.465 82.5321 144.349 -1.84859e-007 -1.36329e-006 -3.00079 8.0299 -4.95139 0.697635 -63.9852 0.078385 0.599329 -122.889 50.1812 54.0339 1.25154e-007 3.5003e-006 -1.7625e-006 149.074 85.2914 -139.764 6.49591e-006 7.05996e-006 3.00309 -8.0295 -4.95144 -0.697653 177.057 -9.07119 -2.20281 180 7.01486e-015 178.685 177.932 3.77174 179.585 1.1153e-006 2.67091e-006 0.035498 -18.8525 67.9692 19.4896 8.13624 25.2324 -3.48805 -171.505 -4.8419 -1.34585 4.5067e-006 -1.99009e-005 -1.23546 -1.87566 -7.87828 0.186513 -8.91502e-007 -2.57141e-006 -0.0613824 18.4707 68.6692 -20.0919 -8.13649 25.2327 3.48774 
53.3044 95.7846 11.3657 -1.20958 -7.65658 1.07598 0.409489 -1.72498 0.178974 0.821882 0.553923 0.329522 0.818344 2.19889 0.315889 -0.886618 35.7298 -1.85738 3.75077 -5.58616 -1.68287 66.3657 3.00766 0.659156 120.978 47.999 -44.3109 -2.38645e-006 5.24702e-006 1.97421e-007 -153.36 82.6155 144.279 -1.84859e-007 -1.36329e-006 -3.00079 8.0299 -4.95139 0.697635 -63.8851 0.0520725 0.601839 -122.947 50.2448 54.0493 1.25154e-007 3.5003e-006 -1.7625e-006 148.822 85.4002 -139.576 6.49591e-006 7.05996e-006 3.00309 -8.0295 -4.95144 -0.697653 177.063 -9.06851 -2.20553 180 7.01486e-015 178.685 177.931 3.77309 179.585 1.1153e-006 2.67091e-006 0.0355018 -18.8525 67.9692 19.4896 8.13624 25.2324 -3.48803 -171.498 -4.83041 -1.34823 4.5067e-006 -1.99009e-005 -1.23551 -1.87464 -7.88368 0.186503 -8.91502e-007 -2.57141e-006 -0.0612907 18.4631 68.6678 -20.0908 -8.13649 25.2327 3.48774 
53.301 95.779 11.3529 -1.21088 -7.65405 1.08767 0.407942 -1.72707 0.177125 0.818816 0.549727 0.326525 0.815311 2.19469 0.312943 -0.840281 35.7017 -1.85539 3.65682 -5.49906 -1.67738 66.3789 2.9755 0.640268 120.926 48.0357 -44.2667 -2.38645e-006 5.24702e-006 1.97421e-007 -153.25 82.699 144.203 -1.84859e-007 -1.36329e-006 -3.00079 8.0299 -4.95139 0.697635 -63.7916 0.0265652 0.60472 -122.991 50.3086 54.06 1.25154e-007 3.5003e-006 -1.7625e-006 148.564 85.5067 -139.378 6.49591e-006 7.05996e-006 3.00309 -8.0295 -4.95144 -0.697653 177.069 -9.06658 -2.20809 180 7.01486e-015 178.685 177.93 3.77471 179.585 1.1153e-006 2.67091e-006 0.0355056 -18.8525 67.9691 19.4896 8.13624 25.2324 -3.48798 -171.492 -4.82049 -1.35061 4.5067e-006 -1.99009e-005 -1.23555 -1.87373 -7.88891 0.1865 -8.91502e-007 -2.57141e-006 -0.0611808 18.4562 68.6667 -20.0899 -8.13649 25.2327 3.48774 
53.2971 95.7791 11.3546 -1.21195 -7.65282 1.09831 0.406656 -1.72888 0.175372 0.816269 0.546088 0.323443 0.812799 2.19106 0.309901 -0.802358 35.6783 -1.8496 3.57019 -5.42347 -1.67041 66.3866 2.94659 0.623923 120.871 48.0706 -44.2185 -2.38645e-006 5.24702e-006 1.97421e-007 -153.133 82.7821 144.121 -1.84859e-007 -1.36329e-006 -3.00079 8.0299 -4.95139 0.697635 -63.7064 0.00215481 0.608005 -123.02 50.3728 54.0652 1.25154e-007 3.5003e-006 -1.7625e-006 148.3 85.6104 -139.173 6.49591e-006 7.05996e-006 3.00309 -8.0295 -4.95144 -0.697653 177.075 -9.06551 -2.21045 180 7.01486e-015 178.685 177.93 3.77657 179.585 1.1153e-006 2.67091e-006 0.0355093 -18.8524 67.969 19.4895 8.13624 25.2325 -3.4879 -171.487 -4.81237 -1.35296 4.5067e-006 -1.99009e-005 -1.2356 -1.87294 -7.8939 0.186505 -8.91502e-007 -2.57141e-006 -0.06105 18.45 68.6659 -20.0893 -8.13649 25.2327 3.48774 
53.2933 95.7823 11.3646 -1.21271 -7.65305 1.10777 0.40567 -1.7304 0.173737 0.81432 0.543037 0.320279 0.810886 2.18801 0.306768 -0.774449 35.6606 -1.83941 3.49267 -5.36104 -1.66176 66.3876 2.92172 0.610689 120.814 48.103 -44.1656 -2.38645e-006 5.24702e-006 1.97421e-007 -153.008 82.8643 144.031 -1.84859e-007 -1.36329e-006 -3.00079 8.0299 -4.95139 0.697635 -63.631 -0.0208669 0.611729 -123.03 50.4377 54.0641 1.25154e-007 3.5003e-006 -1.7625e-006 148.033 85.711 -138.96 6.49591e-006 7.05996e-006 3.00309 -8.0295 -4.95144 -0.697653 177.08 -9.06544 -2.21258 180 7.01486e-015 178.685 177.93 3.77865 179.585 1.1153e-006 2.67091e-006 0.0355132 -18.8522 67.9687 19.4894 8.13625 25.2326 -3.48779 -171.481 -4.80631 -1.35524 4.5067e-006 -1.99009e-005 -1.23564 -1.8723 -7.89855 0.186521 -8.91502e-007 -2.57141e-006 -0.0608953 18.4449 68.6655 -20.0889 -8.13649 25.2327 3.48774 
